<?xml version="1.0" encoding="utf-8"?>
<!-- Generator: Adobe Illustrator 21.0.0, SVG Export Plug-In . SVG Version: 6.00 Build 0)  -->
<svg version="1.1" xmlns="http://www.w3.org/2000/svg" xmlns:xlink="http://www.w3.org/1999/xlink" x="0px" y="0px"
	 viewBox="0 0 666.7 666.7" style="enable-background:new 0 0 666.7 666.7;" xml:space="preserve">
<style type="text/css">
	.st0{fill:#808080;}
	.st1{fill:#FFFFFF;}
	.st2{fill:none;}
	.st3{display:none;}
	.st4{display:inline;}
	.st5{fill:#B8B6B7;}
	.st6{clip-path:url(#SVGID_2_);}
	.st7{display:inline;fill:none;}
</style>
<g id="Layer_2">
	<g>
		<rect x="138" y="256.7" class="st0" width="450" height="326.5"/>
	</g>
	<g id="Layer_3">
		<rect x="194.4" y="294.2" class="st0" width="357.8" height="260.9"/>
		<g id="g10_1_" transform="matrix(1.3333333,0,0,-1.3333333,0,666.66667)">
			<g id="g12_1_" transform="translate(129.9512,273.332)">
				<path id="path14_1_" class="st1" d="M17.5-67.9v-33.6l34.4,16.8L17.5-67.9z"/>
			</g>
			<g id="g16_1_" transform="translate(238.5024,303.8696)">
				<path id="path18_1_" class="st1" d="M27.7-74v46.8L-80.1-79.6l48.1-23.5L27.7-74z"/>
			</g>
			<g id="g20_1_" transform="translate(362.1309,296.8447)">
				<path id="path22_1_" class="st1" d="M39.4-72.6L-68.4-20.2V-67l59.6-29.1L39.4-72.6z"/>
			</g>
			<g id="g24_1_" transform="translate(140.0151,207.748)">
				<path id="path26_1_" class="st1" d="M18.4-54.6L126.2-107v46.8L66.6-31.1L18.4-54.6z"/>
			</g>
			<g id="g28_1_" transform="translate(263.6426,200.7236)">
				<path id="path30_1_" class="st1" d="M30.1-53.2v-46.8l107.8,52.4L89.7-24.1L30.1-53.2z"/>
			</g>
			<g id="g32_1_" transform="translate(251.0713,282.0337)">
				<path id="path34_1_" class="st1" d="M28.9-69.6l-48.6-23.7l48.6-23.7l48.6,23.7L28.9-69.6z"/>
			</g>
			<g id="g12_2_" transform="translate(129.9512,273.332)">
				<path id="path14_2_" class="st1" d="M271-101.4l0.6,33.6l-34.7-16.5L271-101.4z"/>
			</g>
		</g>
		<line class="st2" x1="415.5" y1="601" x2="415.5" y2="295.5"/>
	</g>
</g>
<g id="svg2" xmlns:cc="http://creativecommons.org/ns#" xmlns:dc="http://purl.org/dc/elements/1.1/" xmlns:rdf="http://www.w3.org/1999/02/22-rdf-syntax-ns#" xmlns:svg="http://www.w3.org/2000/svg" class="st3">
	<g id="g10" transform="matrix(1.3333333,0,0,-1.3333333,0,666.66667)" class="st4">
		<g id="g12" transform="translate(129.9512,273.332)">
			<path id="path14" class="st5" d="M6-35v-42.1l31.5,21L6-35z"/>
		</g>
		<g id="g16" transform="translate(238.5024,303.8696)">
			<path id="path18" class="st5" d="M6-35v58.6L-92.5-42l44-29.4L6-35z"/>
		</g>
		<g id="g20" transform="translate(362.1309,296.8447)">
			<path id="path22" class="st5" d="M6-35l-98.5,65.7V-28L-38-64.4L6-35z"/>
		</g>
		<g id="g24" transform="translate(140.0151,207.748)">
			<path id="path26" class="st5" d="M6-35l98.5-65.7V-42L50-5.6L6-35z"/>
		</g>
		<g id="g28" transform="translate(263.6426,200.7236)">
			<path id="path30" class="st5" d="M6-35v-58.6L104.5-28l-44,29.4L6-35z"/>
		</g>
		<g id="g32" transform="translate(251.0713,282.0337)">
			<path id="path34" class="st5" d="M6-35l-44.5-29.7L6-94.5l44.5,29.7L6-35z"/>
		</g>
		<g id="g36">
			<g>
				<defs>
					<rect id="SVGID_1_" x="-77.3" y="-118.3" width="666.7" height="666.7"/>
				</defs>
				<clipPath id="SVGID_2_">
					<use xlink:href="#SVGID_1_"  style="overflow:visible;"/>
				</clipPath>
				<g id="g38" class="st6">
					<g id="g48" transform="translate(372.1943,231.2607)">
						<path id="path50" class="st5" d="M6-35V7.1l-31.4-21L6-35z"/>
					</g>
				</g>
			</g>
		</g>
	</g>
	<line class="st7" x1="341.3" y1="570" x2="341.3" y2="187"/>
</g>
</svg>
